<svg width="421" height="119" viewBox="0 0 421 119" fill="none" xmlns="http://www.w3.org/2000/svg">
<rect x="58" y="55" width="201.694" height="33" fill="#F2C6D6"/>
<line x1="259.294" y1="36.5" x2="259.294" y2="86.5" stroke="#D24075" stroke-width="3" stroke-linecap="round"/>
<path d="M257.794 37C257.794 33.6863 260.481 31 263.794 31H360.794C364.108 31 366.794 33.6863 366.794 37V61C366.794 64.3137 364.108 67 360.794 67H257.794V37Z" fill="#D24075"/>
<path d="M280.206 47.9744C279.851 46.1278 278.374 44.9489 275.817 44.9489C273.189 44.9489 271.399 46.2415 271.407 48.2585C271.399 49.8494 272.38 50.9006 274.475 51.3338L276.336 51.7244C277.337 51.9446 277.806 52.3494 277.806 52.9673C277.806 53.7131 276.996 54.2741 275.774 54.2741C274.595 54.2741 273.828 53.7628 273.608 52.7827L271.101 53.0241C271.421 55.027 273.104 56.2131 275.782 56.2131C278.509 56.2131 280.434 54.7997 280.441 52.733C280.434 51.1776 279.432 50.2259 277.372 49.7784L275.512 49.3807C274.404 49.1321 273.963 48.7486 273.97 48.1165C273.963 47.3778 274.78 46.8665 275.853 46.8665C277.039 46.8665 277.664 47.5128 277.863 48.2301L280.206 47.9744ZM285.132 41.4545H282.561V56H285.132V41.4545ZM290.915 56.2202C292.626 56.2202 293.649 55.4176 294.118 54.5014H294.203V56H296.675V48.6989C296.675 45.8153 294.324 44.9489 292.243 44.9489C289.949 44.9489 288.187 45.9716 287.619 47.9602L290.02 48.3011C290.276 47.5554 291 46.9162 292.257 46.9162C293.45 46.9162 294.104 47.527 294.104 48.5994V48.642C294.104 49.3807 293.329 49.4162 291.405 49.6222C289.288 49.8494 287.264 50.4815 287.264 52.9389C287.264 55.0838 288.834 56.2202 290.915 56.2202ZM291.582 54.331C290.51 54.331 289.743 53.8409 289.743 52.8963C289.743 51.9091 290.602 51.4972 291.753 51.3338C292.427 51.2415 293.777 51.071 294.111 50.8011V52.0866C294.111 53.3011 293.131 54.331 291.582 54.331ZM304.707 45.0909H302.555V42.4773H299.984V45.0909H298.436V47.0795H299.984V53.1449C299.97 55.1974 301.462 56.206 303.393 56.1491C304.125 56.1278 304.629 55.9858 304.906 55.8935L304.473 53.8835C304.331 53.919 304.04 53.983 303.72 53.983C303.074 53.983 302.555 53.7557 302.555 52.7188V47.0795H304.707V45.0909ZM311.57 56.2131C314.113 56.2131 315.86 54.9702 316.314 53.0739L313.914 52.804C313.566 53.7273 312.713 54.2102 311.605 54.2102C309.943 54.2102 308.843 53.1165 308.821 51.2486H316.421V50.4602C316.421 46.6321 314.12 44.9489 311.435 44.9489C308.31 44.9489 306.272 47.2429 306.272 50.6094C306.272 54.0327 308.282 56.2131 311.57 56.2131ZM308.828 49.5156C308.907 48.1236 309.936 46.9517 311.47 46.9517C312.948 46.9517 313.942 48.0312 313.956 49.5156H308.828ZM325.208 48.8835H318.66V51H325.208V48.8835ZM329.51 60.0909C331.513 60.0909 332.671 59.0611 333.289 57.321L337.671 45.1051L334.922 45.0909L332.401 53.3295H332.287L329.773 45.0909H327.046L331.002 56.2273L330.782 56.8168C330.306 58.0597 329.553 58.1449 328.431 57.8182L327.834 59.821C328.182 59.9631 328.807 60.0909 329.51 60.0909ZM339.455 45.0909V56.5895C339.455 57.5057 339.065 57.9957 338.077 57.9957C337.95 57.9957 337.85 57.9886 337.708 57.9815V60.0767C337.893 60.0909 338.049 60.0909 338.234 60.0909C340.641 60.0909 342.026 58.983 342.026 56.625V45.0909H339.455ZM340.734 43.5426C341.55 43.5426 342.218 42.9176 342.218 42.1506C342.218 41.3764 341.55 40.7514 340.734 40.7514C339.91 40.7514 339.242 41.3764 339.242 42.1506C339.242 42.9176 339.91 43.5426 340.734 43.5426ZM353.292 47.9744C352.937 46.1278 351.46 44.9489 348.903 44.9489C346.275 44.9489 344.485 46.2415 344.492 48.2585C344.485 49.8494 345.465 50.9006 347.561 51.3338L349.421 51.7244C350.423 51.9446 350.892 52.3494 350.892 52.9673C350.892 53.7131 350.082 54.2741 348.86 54.2741C347.681 54.2741 346.914 53.7628 346.694 52.7827L344.187 53.0241C344.507 55.027 346.19 56.2131 348.867 56.2131C351.595 56.2131 353.519 54.7997 353.527 52.733C353.519 51.1776 352.518 50.2259 350.458 49.7784L348.598 49.3807C347.49 49.1321 347.049 48.7486 347.056 48.1165C347.049 47.3778 347.866 46.8665 348.939 46.8665C350.125 46.8665 350.75 47.5128 350.948 48.2301L353.292 47.9744Z" fill="white"/>
<path d="M70.9387 64.9091L75.6689 72.6051V78H77.2541V72.6051L81.9842 64.9091H80.1689L76.5382 71.0199H76.3848L72.7541 64.9091H70.9387ZM83.8299 68.1818V78.7159C83.8299 79.7131 83.4208 80.2756 82.5004 80.2756H82.2191V81.6818H82.5259C84.418 81.6818 85.3384 80.5312 85.3384 78.7159V68.1818H83.8299ZM84.5714 66.5455C85.1594 66.5455 85.6452 66.0852 85.6452 65.5227C85.6452 64.9602 85.1594 64.5 84.5714 64.5C83.9833 64.5 83.4975 64.9602 83.4975 65.5227C83.4975 66.0852 83.9833 66.5455 84.5714 66.5455ZM95.0559 70.3807C94.5829 68.9872 93.5218 68.054 91.5787 68.054C89.5076 68.054 87.9735 69.2301 87.9735 70.892C87.9735 72.2472 88.7789 73.1548 90.5815 73.5767L92.2179 73.9602C93.2086 74.1903 93.6752 74.6634 93.6752 75.3409C93.6752 76.1847 92.7804 76.875 91.3741 76.875C90.1404 76.875 89.367 76.3445 89.0985 75.2898L87.6667 75.6477C88.0183 77.3161 89.3926 78.2045 91.3997 78.2045C93.6816 78.2045 95.2349 76.9581 95.2349 75.2642C95.2349 73.8963 94.3784 73.0334 92.627 72.6051L91.1696 72.2472C90.0062 71.9595 89.4821 71.5696 89.4821 70.8153C89.4821 69.9716 90.377 69.358 91.5787 69.358C92.8954 69.358 93.4387 70.0866 93.7008 70.7642L95.0559 70.3807ZM102.773 78H104.23V76.4915H104.409C104.741 77.0284 105.381 78.2045 107.273 78.2045C109.727 78.2045 111.44 76.2358 111.44 73.1165C111.44 70.0227 109.727 68.054 107.247 68.054C105.33 68.054 104.741 69.2301 104.409 69.7415H104.281V64.9091H102.773V78ZM104.256 73.0909C104.256 70.892 105.227 69.4091 107.068 69.4091C108.986 69.4091 109.932 71.0199 109.932 73.0909C109.932 75.1875 108.96 76.8494 107.068 76.8494C105.253 76.8494 104.256 75.3153 104.256 73.0909ZM113.748 78H115.256V68.1818H113.748V78ZM114.515 66.5455C115.103 66.5455 115.589 66.0852 115.589 65.5227C115.589 64.9602 115.103 64.5 114.515 64.5C113.927 64.5 113.441 64.9602 113.441 65.5227C113.441 66.0852 113.927 66.5455 114.515 66.5455ZM119.528 72.0938C119.528 70.3807 120.589 69.4091 122.034 69.4091C123.433 69.4091 124.284 70.3232 124.284 71.8636V78H125.792V71.7614C125.792 69.2557 124.456 68.054 122.468 68.054C120.985 68.054 120.065 68.7188 119.605 69.7159H119.477V68.1818H118.019V78H119.528V72.0938ZM132.256 78.2045C134.148 78.2045 134.787 77.0284 135.12 76.4915H135.299V78H136.756V64.9091H135.248V69.7415H135.12C134.787 69.2301 134.199 68.054 132.282 68.054C129.801 68.054 128.088 70.0227 128.088 73.1165C128.088 76.2358 129.801 78.2045 132.256 78.2045ZM132.461 76.8494C130.569 76.8494 129.597 75.1875 129.597 73.0909C129.597 71.0199 130.543 69.4091 132.461 69.4091C134.301 69.4091 135.273 70.892 135.273 73.0909C135.273 75.3153 134.276 76.8494 132.461 76.8494ZM139.728 78H141.237V68.1818H139.728V78ZM140.495 66.5455C141.083 66.5455 141.569 66.0852 141.569 65.5227C141.569 64.9602 141.083 64.5 140.495 64.5C139.907 64.5 139.422 64.9602 139.422 65.5227C139.422 66.0852 139.907 66.5455 140.495 66.5455ZM145.508 72.0938C145.508 70.3807 146.569 69.4091 148.014 69.4091C149.414 69.4091 150.264 70.3232 150.264 71.8636V78H151.773V71.7614C151.773 69.2557 150.437 68.054 148.449 68.054C146.966 68.054 146.045 68.7188 145.585 69.7159H145.457V68.1818H144V78H145.508V72.0938ZM158.492 81.8864C160.844 81.8864 162.737 80.8125 162.737 78.2812V68.1818H161.279V69.7415H161.126C160.793 69.2301 160.18 68.054 158.262 68.054C155.782 68.054 154.069 70.0227 154.069 73.0398C154.069 76.108 155.859 77.8466 158.237 77.8466C160.154 77.8466 160.768 76.7216 161.1 76.1847H161.228V78.179C161.228 79.8153 160.077 80.5568 158.492 80.5568C156.709 80.5568 156.082 79.6172 155.68 79.0739L154.478 79.9176C155.092 80.9467 156.3 81.8864 158.492 81.8864ZM158.441 76.4915C156.549 76.4915 155.577 75.0597 155.577 73.0142C155.577 71.0199 156.523 69.4091 158.441 69.4091C160.282 69.4091 161.254 70.892 161.254 73.0142C161.254 75.1875 160.256 76.4915 158.441 76.4915ZM174.933 68.1818H172.734V67.1847C172.734 66.2131 173.143 65.7017 174.14 65.7017C174.575 65.7017 174.83 65.804 174.984 65.8551L175.418 64.5511C175.188 64.4489 174.728 64.2955 173.987 64.2955C172.58 64.2955 171.225 65.1392 171.225 66.8267V68.1818H169.64V69.4602H171.225V78H172.734V69.4602H174.933V68.1818ZM180.631 78.2045C183.29 78.2045 185.08 76.1847 185.08 73.142C185.08 70.0739 183.29 68.054 180.631 68.054C177.972 68.054 176.182 70.0739 176.182 73.142C176.182 76.1847 177.972 78.2045 180.631 78.2045ZM180.631 76.8494C178.611 76.8494 177.691 75.1108 177.691 73.142C177.691 71.1733 178.611 69.4091 180.631 69.4091C182.651 69.4091 183.571 71.1733 183.571 73.142C183.571 75.1108 182.651 76.8494 180.631 76.8494ZM187.383 78H188.891V71.7869C188.891 70.4574 189.939 69.4858 191.371 69.4858C191.774 69.4858 192.189 69.5625 192.292 69.5881V68.054C192.119 68.0412 191.723 68.0284 191.499 68.0284C190.323 68.0284 189.3 68.6932 188.942 69.6648H188.84V68.1818H187.383V78ZM206.506 68.1818H208.04C207.97 66.2067 206.148 64.7301 203.617 64.7301C201.111 64.7301 199.142 66.1875 199.142 68.3864C199.142 70.1506 200.421 71.1989 202.466 71.7869L204.077 72.2472C205.458 72.6307 206.685 73.1165 206.685 74.4205C206.685 75.8523 205.304 76.7983 203.489 76.7983C201.929 76.7983 200.549 76.108 200.421 74.625H198.784C198.938 76.7727 200.676 78.2301 203.489 78.2301C206.506 78.2301 208.219 76.5682 208.219 74.446C208.219 71.9915 205.892 71.1989 204.537 70.8409L203.208 70.483C202.236 70.2273 200.676 69.7159 200.676 68.3097C200.676 67.0568 201.827 66.1364 203.566 66.1364C205.151 66.1364 206.353 66.8906 206.506 68.1818ZM212.129 64.9091H210.621V78H212.129V64.9091ZM217.782 78.2301C219.495 78.2301 220.39 77.3097 220.696 76.6705H220.773V78H222.282V71.5312C222.282 68.4119 219.904 68.054 218.651 68.054C217.168 68.054 215.48 68.5653 214.713 70.3551L216.145 70.8665C216.478 70.1506 217.264 69.3835 218.702 69.3835C220.089 69.3835 220.773 70.1186 220.773 71.3778V71.429C220.773 72.1577 220.032 72.0938 218.242 72.3239C216.42 72.5604 214.432 72.9631 214.432 75.2131C214.432 77.1307 215.915 78.2301 217.782 78.2301ZM218.012 76.875C216.81 76.875 215.941 76.3381 215.941 75.2898C215.941 74.1392 216.989 73.7812 218.165 73.6278C218.804 73.5511 220.517 73.3722 220.773 73.0653V74.446C220.773 75.6733 219.801 76.875 218.012 76.875ZM229.305 68.1818H227.208V65.8295H225.7V68.1818H224.217V69.4602H225.7V75.5966C225.7 77.3097 227.08 78.1278 228.359 78.1278C228.921 78.1278 229.279 78.0256 229.484 77.9489L229.177 76.5938C229.049 76.6193 228.845 76.6705 228.512 76.6705C227.847 76.6705 227.208 76.4659 227.208 75.1875V69.4602H229.305V68.1818ZM235.585 78.2045C237.579 78.2045 239.037 77.2074 239.497 75.7244L238.04 75.3153C237.656 76.3381 236.768 76.8494 235.585 76.8494C233.814 76.8494 232.594 75.7053 232.523 73.6023H239.65V72.9631C239.65 69.3068 237.477 68.054 235.432 68.054C232.773 68.054 231.008 70.1506 231.008 73.1676C231.008 76.1847 232.747 78.2045 235.585 78.2045ZM232.523 72.2983C232.626 70.7706 233.706 69.4091 235.432 69.4091C237.068 69.4091 238.116 70.6364 238.116 72.2983H232.523ZM243.045 78.1023C243.677 78.1023 244.195 77.5845 244.195 76.9517C244.195 76.3189 243.677 75.8011 243.045 75.8011C242.412 75.8011 241.894 76.3189 241.894 76.9517C241.894 77.5845 242.412 78.1023 243.045 78.1023Z" fill="#2D1D25"/>
</svg>
